<svg fill="none" height="24" viewBox="0 0 25 24" width="25" xmlns="http://www.w3.org/2000/svg">
    <g id="HouseLine">
        <path d="M23.3 19.5001H21.8V10.8329C21.8 10.6253 21.757 10.42 21.6735 10.2299C21.5901 10.0398 21.4681 9.86907 21.3153 9.72855L13.8153 2.6523C13.8116 2.6491 13.8082 2.64566 13.805 2.64199C13.5289 2.39086 13.169 2.25171 12.7958 2.25171C12.4225 2.25171 12.0627 2.39086 11.7866 2.64199L11.7762 2.6523L4.28468 9.72855C4.13186 9.86907 4.00988 10.0398 3.92645 10.2299C3.84302 10.42 3.79996 10.6253 3.79999 10.8329V19.5001H2.29999C2.10108 19.5001 1.91031 19.5791 1.76966 19.7198C1.62901 19.8604 1.54999 20.0512 1.54999 20.2501C1.54999 20.449 1.62901 20.6398 1.76966 20.7804C1.91031 20.9211 2.10108 21.0001 2.29999 21.0001H23.3C23.4989 21.0001 23.6897 20.9211 23.8303 20.7804C23.971 20.6398 24.05 20.449 24.05 20.2501C24.05 20.0512 23.971 19.8604 23.8303 19.7198C23.6897 19.5791 23.4989 19.5001 23.3 19.5001ZM5.29999 10.8329L5.3103 10.8236L12.8 3.75011L20.2906 10.8217L20.3009 10.8311V19.5001H15.8V15.0001C15.8 14.6023 15.642 14.2208 15.3606 13.9395C15.0793 13.6582 14.6978 13.5001 14.3 13.5001H11.3C10.9022 13.5001 10.5206 13.6582 10.2393 13.9395C9.95802 14.2208 9.79999 14.6023 9.79999 15.0001V19.5001H5.29999V10.8329ZM14.3 19.5001H11.3V15.0001H14.3V19.5001Z"
            fill="#8B8E93"
            id="Vector" />
    </g>
</svg>
