<svg fill="none" height="24" viewBox="0 0 25 24" width="25" xmlns="http://www.w3.org/2000/svg">
    <g id="HouseLine">
        <path d="M21.05 10.832V20.2501H15.05V15.0001C15.05 14.8012 14.971 14.6104 14.8303 14.4698C14.6897 14.3291 14.4989 14.2501 14.3 14.2501H11.3C11.1011 14.2501 10.9103 14.3291 10.7697 14.4698C10.629 14.6104 10.55 14.8012 10.55 15.0001V20.2501H4.55V10.832C4.55001 10.7275 4.57187 10.6241 4.61417 10.5285C4.65647 10.433 4.71827 10.3473 4.79563 10.277L12.2956 3.19511C12.4337 3.06942 12.6137 2.99976 12.8005 2.99976C12.9872 2.99976 13.1672 3.06942 13.3053 3.19511L20.8053 10.277C20.8825 10.3474 20.9441 10.4331 20.9863 10.5286C21.0284 10.6242 21.0501 10.7275 21.05 10.832Z" fill="#FFC844"
            id="Vector"
            opacity="0.2" />
        <path d="M23.3 19.5001H21.8V10.8329C21.8 10.6253 21.757 10.42 21.6735 10.2299C21.5901 10.0398 21.4681 9.86907 21.3153 9.72855L13.8153 2.6523C13.8116 2.6491 13.8082 2.64566 13.805 2.64199C13.5289 2.39086 13.169 2.25171 12.7958 2.25171C12.4225 2.25171 12.0627 2.39086 11.7866 2.64199L11.7763 2.6523L4.28469 9.72855C4.13188 9.86907 4.00989 10.0398 3.92646 10.2299C3.84303 10.42 3.79997 10.6253 3.8 10.8329V19.5001H2.3C2.10109 19.5001 1.91033 19.5791 1.76967 19.7198C1.62902 19.8604 1.55 20.0512 1.55 20.2501C1.55 20.449 1.62902 20.6398 1.76967 20.7804C1.91033 20.9211 2.10109 21.0001 2.3 21.0001H23.3C23.4989 21.0001 23.6897 20.9211 23.8303 20.7804C23.971 20.6398 24.05 20.449 24.05 20.2501C24.05 20.0512 23.971 19.8604 23.8303 19.7198C23.6897 19.5791 23.4989 19.5001 23.3 19.5001ZM5.3 10.8329L5.31032 10.8236L12.8 3.75011L20.2906 10.8217L20.3009 10.8311V19.5001H15.8V15.0001C15.8 14.6023 15.642 14.2208 15.3607 13.9395C15.0794 13.6582 14.6978 13.5001 14.3 13.5001H11.3C10.9022 13.5001 10.5206 13.6582 10.2393 13.9395C9.95804 14.2208 9.8 14.6023 9.8 15.0001V19.5001H5.3V10.8329ZM14.3 19.5001H11.3V15.0001H14.3V19.5001Z"
            fill="#FFC844"
            id="Vector_2" />
    </g>
</svg>
