<svg fill="none" height="24" viewBox="0 0 25 24" width="25" xmlns="http://www.w3.org/2000/svg">
    <g id="User">
        <path d="M21.8487 19.8751C20.4209 17.4067 18.2206 15.6367 15.6528 14.7976C16.9229 14.0415 17.9098 12.8893 18.4617 11.518C19.0137 10.1468 19.1003 8.63224 18.7081 7.20701C18.316 5.78178 17.4669 4.52467 16.2912 3.62873C15.1155 2.73279 13.6781 2.24756 12.2 2.24756C10.7218 2.24756 9.28446 2.73279 8.10873 3.62873C6.93301 4.52467 6.08389 5.78178 5.69178 7.20701C5.29967 8.63224 5.38624 10.1468 5.9382 11.518C6.49016 12.8893 7.47699 14.0415 8.74715 14.7976C6.17934 15.6357 3.97902 17.4057 2.55121 19.8751C2.49885 19.9605 2.46412 20.0555 2.44907 20.1545C2.43402 20.2535 2.43895 20.3545 2.46358 20.4516C2.4882 20.5487 2.53202 20.6399 2.59245 20.7197C2.65288 20.7996 2.7287 20.8666 2.81542 20.9167C2.90215 20.9667 2.99803 20.999 3.09741 21.0114C3.19678 21.0238 3.29765 21.0163 3.39404 20.9891C3.49044 20.9619 3.58042 20.9157 3.65867 20.8532C3.73692 20.7907 3.80186 20.7131 3.84965 20.6251C5.6159 17.5726 8.73777 15.7501 12.2 15.7501C15.6621 15.7501 18.784 17.5726 20.5503 20.6251C20.5981 20.7131 20.663 20.7907 20.7413 20.8532C20.8195 20.9157 20.9095 20.9619 21.0059 20.9891C21.1023 21.0163 21.2031 21.0238 21.3025 21.0114C21.4019 20.999 21.4978 20.9667 21.5845 20.9167C21.6712 20.8666 21.747 20.7996 21.8075 20.7197C21.8679 20.6399 21.9117 20.5487 21.9363 20.4516C21.961 20.3545 21.9659 20.2535 21.9509 20.1545C21.9358 20.0555 21.9011 19.9605 21.8487 19.8751ZM6.94996 9.00011C6.94996 7.96176 7.25787 6.94672 7.83475 6.08337C8.41162 5.22001 9.23156 4.5471 10.1909 4.14974C11.1502 3.75238 12.2058 3.64841 13.2242 3.85099C14.2426 4.05356 15.178 4.55357 15.9123 5.2878C16.6465 6.02202 17.1465 6.95748 17.3491 7.97589C17.5517 8.99429 17.4477 10.0499 17.0503 11.0092C16.653 11.9685 15.9801 12.7884 15.1167 13.3653C14.2533 13.9422 13.2383 14.2501 12.2 14.2501C10.808 14.2486 9.47354 13.695 8.4893 12.7108C7.50505 11.7265 6.95145 10.392 6.94996 9.00011Z"
            fill="#8B8E93"
            id="Vector" />
    </g>
</svg>
