<svg fill="none" height="24" viewBox="0 0 25 24" width="25" xmlns="http://www.w3.org/2000/svg">
    <g id="Notepad">
        <path d="M19.9 4.5V18.75C19.9 19.3467 19.6629 19.919 19.241 20.341C18.819 20.7629 18.2467 21 17.65 21H7.14996C6.55323 21 5.98093 20.7629 5.55897 20.341C5.13702 19.919 4.89996 19.3467 4.89996 18.75V4.5C4.89996 4.30109 4.97898 4.11032 5.11963 3.96967C5.26029 3.82902 5.45105 3.75 5.64996 3.75H19.15C19.3489 3.75 19.5396 3.82902 19.6803 3.96967C19.8209 4.11032 19.9 4.30109 19.9 4.5Z" fill="#FFC844"
            id="Vector"
            opacity="0.2" />
        <path d="M16.15 12C16.15 12.1989 16.0709 12.3897 15.9303 12.5303C15.7896 12.671 15.5989 12.75 15.4 12.75H9.39996C9.20105 12.75 9.01029 12.671 8.86963 12.5303C8.72898 12.3897 8.64996 12.1989 8.64996 12C8.64996 11.8011 8.72898 11.6103 8.86963 11.4697C9.01029 11.329 9.20105 11.25 9.39996 11.25H15.4C15.5989 11.25 15.7896 11.329 15.9303 11.4697C16.0709 11.6103 16.15 11.8011 16.15 12ZM15.4 14.25H9.39996C9.20105 14.25 9.01029 14.329 8.86963 14.4697C8.72898 14.6103 8.64996 14.8011 8.64996 15C8.64996 15.1989 8.72898 15.3897 8.86963 15.5303C9.01029 15.671 9.20105 15.75 9.39996 15.75H15.4C15.5989 15.75 15.7896 15.671 15.9303 15.5303C16.0709 15.3897 16.15 15.1989 16.15 15C16.15 14.8011 16.0709 14.6103 15.9303 14.4697C15.7896 14.329 15.5989 14.25 15.4 14.25ZM20.65 4.5V18.75C20.65 19.5456 20.3339 20.3087 19.7713 20.8713C19.2087 21.4339 18.4456 21.75 17.65 21.75H7.14996C6.35431 21.75 5.59125 21.4339 5.02864 20.8713C4.46603 20.3087 4.14996 19.5456 4.14996 18.75V4.5C4.14996 4.10218 4.308 3.72064 4.5893 3.43934C4.87061 3.15804 5.25214 3 5.64996 3H7.14996V2.25C7.14996 2.05109 7.22898 1.86032 7.36963 1.71967C7.51029 1.57902 7.70105 1.5 7.89996 1.5C8.09888 1.5 8.28964 1.57902 8.43029 1.71967C8.57095 1.86032 8.64996 2.05109 8.64996 2.25V3H11.65V2.25C11.65 2.05109 11.729 1.86032 11.8696 1.71967C12.0103 1.57902 12.2011 1.5 12.4 1.5C12.5989 1.5 12.7896 1.57902 12.9303 1.71967C13.0709 1.86032 13.15 2.05109 13.15 2.25V3H16.15V2.25C16.15 2.05109 16.229 1.86032 16.3696 1.71967C16.5103 1.57902 16.7011 1.5 16.9 1.5C17.0989 1.5 17.2896 1.57902 17.4303 1.71967C17.5709 1.86032 17.65 2.05109 17.65 2.25V3H19.15C19.5478 3 19.9293 3.15804 20.2106 3.43934C20.4919 3.72064 20.65 4.10218 20.65 4.5ZM19.15 4.5H17.65V5.25C17.65 5.44891 17.5709 5.63968 17.4303 5.78033C17.2896 5.92098 17.0989 6 16.9 6C16.7011 6 16.5103 5.92098 16.3696 5.78033C16.229 5.63968 16.15 5.44891 16.15 5.25V4.5H13.15V5.25C13.15 5.44891 13.0709 5.63968 12.9303 5.78033C12.7896 5.92098 12.5989 6 12.4 6C12.2011 6 12.0103 5.92098 11.8696 5.78033C11.729 5.63968 11.65 5.44891 11.65 5.25V4.5H8.64996V5.25C8.64996 5.44891 8.57095 5.63968 8.43029 5.78033C8.28964 5.92098 8.09888 6 7.89996 6C7.70105 6 7.51029 5.92098 7.36963 5.78033C7.22898 5.63968 7.14996 5.44891 7.14996 5.25V4.5H5.64996V18.75C5.64996 19.1478 5.808 19.5294 6.0893 19.8107C6.37061 20.092 6.75214 20.25 7.14996 20.25H17.65C18.0478 20.25 18.4293 20.092 18.7106 19.8107C18.9919 19.5294 19.15 19.1478 19.15 18.75V4.5Z"
            fill="#FFC844"
            id="Vector_2" />
    </g>
</svg>
