<svg fill="none" height="24" viewBox="0 0 25 24" width="25" xmlns="http://www.w3.org/2000/svg">
    <g id="Wallet">
        <path d="M21.6001 8.25V18.75C21.6001 18.9489 21.5211 19.1397 21.3804 19.2803C21.2398 19.421 21.049 19.5 20.8501 19.5H5.8501C5.45227 19.5 5.07074 19.342 4.78944 19.0607C4.50813 18.7794 4.3501 18.3978 4.3501 18V6C4.3501 6.39782 4.50813 6.77936 4.78944 7.06066C5.07074 7.34196 5.45227 7.5 5.8501 7.5H20.8501C21.049 7.5 21.2398 7.57902 21.3804 7.71967C21.5211 7.86032 21.6001 8.05109 21.6001 8.25Z" fill="#FFC844"
            id="Vector"
            opacity="0.2" />
        <path d="M20.8501 6.75H5.8501C5.65119 6.75 5.46042 6.67098 5.31977 6.53033C5.17912 6.38968 5.1001 6.19891 5.1001 6C5.1001 5.80109 5.17912 5.61032 5.31977 5.46967C5.46042 5.32902 5.65119 5.25 5.8501 5.25H18.6001C18.799 5.25 18.9898 5.17098 19.1304 5.03033C19.2711 4.88968 19.3501 4.69891 19.3501 4.5C19.3501 4.30109 19.2711 4.11032 19.1304 3.96967C18.9898 3.82902 18.799 3.75 18.6001 3.75H5.8501C5.25336 3.75 4.68106 3.98705 4.25911 4.40901C3.83715 4.83097 3.6001 5.40326 3.6001 6V18C3.6001 18.5967 3.83715 19.169 4.25911 19.591C4.68106 20.0129 5.25336 20.25 5.8501 20.25H20.8501C21.2479 20.25 21.6295 20.092 21.9108 19.8107C22.1921 19.5294 22.3501 19.1478 22.3501 18.75V8.25C22.3501 7.85218 22.1921 7.47064 21.9108 7.18934C21.6295 6.90804 21.2479 6.75 20.8501 6.75ZM20.8501 18.75H5.8501C5.65119 18.75 5.46042 18.671 5.31977 18.5303C5.17912 18.3897 5.1001 18.1989 5.1001 18V8.12156C5.34092 8.20693 5.59459 8.25037 5.8501 8.25H20.8501V18.75ZM16.3501 13.125C16.3501 12.9025 16.4161 12.685 16.5397 12.5C16.6633 12.315 16.839 12.1708 17.0446 12.0856C17.2501 12.0005 17.4763 11.9782 17.6946 12.0216C17.9128 12.065 18.1133 12.1722 18.2706 12.3295C18.4279 12.4868 18.5351 12.6873 18.5785 12.9055C18.6219 13.1238 18.5996 13.35 18.5145 13.5555C18.4293 13.7611 18.2851 13.9368 18.1001 14.0604C17.9151 14.184 17.6976 14.25 17.4751 14.25C17.1767 14.25 16.8906 14.1315 16.6796 13.9205C16.4686 13.7095 16.3501 13.4234 16.3501 13.125Z"
            fill="#FFC844"
            id="Vector_2" />
    </g>
</svg>
